<svg width="30" height="30" viewBox="0 0 30 30" fill="none" xmlns="http://www.w3.org/2000/svg">
<path d="M25.9469 11.349H4.05295C3.60987 11.3495 3.17264 11.4501 2.77392 11.6434C2.37521 11.8366 2.02534 12.1175 1.75045 12.465C1.4767 12.8115 1.28542 13.2158 1.19108 13.6472C1.09674 14.0786 1.10182 14.5258 1.20595 14.955L3.55345 24.567C3.89333 25.8054 4.63128 26.8976 5.65345 27.675C6.67645 28.4535 7.92895 28.875 9.21745 28.875H20.7794C22.0679 28.875 23.3204 28.4535 24.3434 27.675C25.3656 26.8976 26.1036 25.8054 26.4434 24.567L28.7909 14.9565C28.949 14.3086 28.8796 13.626 28.5946 13.0231C28.3095 12.4202 27.826 11.9335 27.2249 11.6445C26.825 11.4525 26.3875 11.3516 25.9439 11.349M9.13045 17.19V23.0325M14.9999 17.19V23.0325M20.8694 17.19V23.0325M25.2719 11.349C25.2714 10.0051 25.0053 8.67449 24.489 7.43373C23.9726 6.19296 23.2161 5.06647 22.2629 4.119C20.3332 2.19975 17.7216 1.12321 14.9999 1.125C12.2783 1.12321 9.66672 2.19975 7.73695 4.119C6.78409 5.0666 6.02788 6.19314 5.51175 7.4339C4.99563 8.67466 4.72977 10.0052 4.72945 11.349" stroke="white" stroke-linecap="round" stroke-linejoin="round"/>
</svg>
